v 0.0 1.0 0.0
v 0.0 1.0 0.0
v 0.0 1.0 0.0
v 0.0 1.0 0.0
v 0.0 1.0 0.0
v 0.0 1.0 0.0
v -0.0 1.0 0.0
v -0.0 1.0 0.0
v -0.0 1.0 0.0
v -0.0 1.0 0.0
v -0.0 1.0 0.0
v -0.0 1.0 -0.0
v -0.0 1.0 -0.0
v -0.0 1.0 -0.0
v -0.0 1.0 -0.0
v -0.0 1.0 -0.0
v 0.0 1.0 -0.0
v 0.0 1.0 -0.0
v 0.0 1.0 -0.0
v 0.0 1.0 -0.0
v 0.0 1.0 -0.0
v 0.15643446504023087 0.9876883405951377 0.0
v 0.14877801734965798 0.9876883405951377 0.048340908203384936
v 0.12655814072350038 0.9876883405951377 0.09194987150091015
v 0.09194987150091018 0.9876883405951377 0.12655814072350038
v 0.04834090820338494 0.9876883405951377 0.14877801734965798
v 9.578848344392363e-18 0.9876883405951377 0.15643446504023087
v -0.04834090820338493 0.9876883405951377 0.14877801734965798
v -0.09194987150091014 0.9876883405951377 0.12655814072350038
v -0.12655814072350038 0.9876883405951377 0.09194987150091018
v -0.14877801734965798 0.9876883405951377 0.04834090820338496
v -0.15643446504023087 0.9876883405951377 1.9157696688784726e-17
v -0.148778017349658 0.9876883405951377 -0.04834090820338486
v -0.1265581407235004 0.9876883405951377 -0.09194987150091014
v -0.09194987150091019 0.9876883405951377 -0.12655814072350038
v -0.048340908203384964 0.9876883405951377 -0.14877801734965795
v -2.8736545033177085e-17 0.9876883405951377 -0.15643446504023087
v 0.04834090820338491 0.9876883405951377 -0.14877801734965798
v 0.09194987150091012 0.9876883405951377 -0.1265581407235004
v 0.12655814072350036 0.9876883405951377 -0.09194987150091019
v 0.14877801734965795 0.9876883405951377 -0.04834090820338497
v 0.15643446504023087 0.9876883405951377 -3.831539337756945e-17
v 0.30901699437494745 0.9510565162951536 0.0
v 0.2938926261462366 0.9510565162951536 0.0954915028125263
v 0.25000000000000006 0.9510565162951536 0.1816356320013402
v 0.18163563200134025 0.9510565162951536 0.25000000000000006
v 0.09549150281252632 0.9510565162951536 0.2938926261462366
v 1.8921833652170753e-17 0.9510565162951536 0.30901699437494745
v -0.09549150281252629 0.9510565162951536 0.2938926261462366
v -0.18163563200134017 0.9510565162951536 0.25000000000000006
v -0.25000000000000006 0.9510565162951536 0.18163563200134025
v -0.2938926261462366 0.9510565162951536 0.09549150281252634
v -0.30901699437494745 0.9510565162951536 3.7843667304341506e-17
v -0.2938926261462367 0.9510565162951536 -0.09549150281252615
v -0.2500000000000001 0.9510565162951536 -0.18163563200134017
v -0.18163563200134028 0.9510565162951536 -0.25000000000000006
v -0.09549150281252636 0.9510565162951536 -0.29389262614623657
v -5.676550095651226e-17 0.9510565162951536 -0.30901699437494745
v 0.09549150281252625 0.9510565162951536 -0.2938926261462366
v 0.18163563200134014 0.9510565162951536 -0.2500000000000001
v 0.25 0.9510565162951536 -0.18163563200134028
v 0.29389262614623657 0.9510565162951536 -0.09549150281252637
v 0.30901699437494745 0.9510565162951536 -7.568733460868301e-17
v 0.45399049973954675 0.8910065241883677 0.0
v 0.4317706231133892 0.8910065241883677 0.1402907797042951
v 0.36728602957406853 0.8910065241883677 0.2668489204277954
v 0.26684892042779546 0.8910065241883677 0.3672860295740685
v 0.14029077970429513 0.8910065241883677 0.4317706231133892
v 2.779890061746716e-17 0.8910065241883677 0.45399049973954675
v -0.14029077970429507 0.8910065241883677 0.43177062311338926
v -0.26684892042779534 0.8910065241883677 0.36728602957406853
v -0.3672860295740685 0.8910065241883677 0.26684892042779546
v -0.4317706231133892 0.8910065241883677 0.14029077970429515
v -0.45399049973954675 0.8910065241883677 5.559780123493432e-17
v -0.43177062311338926 0.8910065241883677 -0.14029077970429488
v -0.3672860295740686 0.8910065241883677 -0.26684892042779534
v -0.2668489204277955 0.8910065241883677 -0.3672860295740685
v -0.14029077970429518 0.8910065241883677 -0.43177062311338915
v -8.339670185240148e-17 0.8910065241883677 -0.45399049973954675
v 0.14029077970429502 0.8910065241883677 -0.43177062311338926
v 0.2668489204277953 0.8910065241883677 -0.3672860295740686
v 0.3672860295740684 0.8910065241883677 -0.2668489204277955
v 0.43177062311338915 0.8910065241883677 -0.1402907797042952
v 0.45399049973954675 0.8910065241883677 -1.1119560246986863e-16
v 0.587785252292473 0.8090169943749476 0.0
v 0.5590169943749473 0.8090169943749476 0.1816356320013402
v 0.47552825814757677 0.8090169943749476 0.34549150281252616
v 0.3454915028125262 0.8090169943749476 0.4755282581475767
v 0.18163563200134022 0.8090169943749476 0.5590169943749473
v 3.5991466390299825e-17 0.8090169943749476 0.587785252292473
v -0.18163563200134017 0.8090169943749476 0.5590169943749475
v -0.3454915028125261 0.8090169943749476 0.47552825814757677
v -0.4755282581475767 0.8090169943749476 0.3454915028125262
v -0.5590169943749473 0.8090169943749476 0.18163563200134028
v -0.587785252292473 0.8090169943749476 7.198293278059965e-17
v -0.5590169943749475 0.8090169943749476 -0.18163563200133992
v -0.4755282581475769 0.8090169943749476 -0.3454915028125261
v -0.3454915028125263 0.8090169943749476 -0.4755282581475767
v -0.1816356320013403 0.8090169943749476 -0.5590169943749473
v -1.0797439917089948e-16 0.8090169943749476 -0.587785252292473
v 0.1816356320013401 0.8090169943749476 -0.5590169943749475
v 0.34549150281252605 0.8090169943749476 -0.4755282581475769
v 0.47552825814757665 0.8090169943749476 -0.3454915028125263
v 0.5590169943749473 0.8090169943749476 -0.18163563200134034
v 0.587785252292473 0.8090169943749476 -1.439658655611993e-16
v 0.7071067811865476 0.7071067811865477 0.0
v 0.6724985119639574 0.7071067811865477 0.21850801222441057
v 0.5720614028176845 0.7071067811865477 0.4156269377774534
v 0.41562693777745346 0.7071067811865477 0.5720614028176844
v 0.2185080122244106 0.7071067811865477 0.6724985119639574
v 4.329780281177467e-17 0.7071067811865477 0.7071067811865476
v -0.21850801222441052 0.7071067811865477 0.6724985119639575
v -0.4156269377774533 0.7071067811865477 0.5720614028176845
v -0.5720614028176844 0.7071067811865477 0.41562693777745346
v -0.6724985119639574 0.7071067811865477 0.21850801222441066
v -0.7071067811865476 0.7071067811865477 8.659560562354934e-17
v -0.6724985119639576 0.7071067811865477 -0.21850801222441021
v -0.5720614028176845 0.7071067811865477 -0.4156269377774533
v -0.4156269377774535 0.7071067811865477 -0.5720614028176844
v -0.21850801222441069 0.7071067811865477 -0.6724985119639574
v -1.29893408435324e-16 0.7071067811865477 -0.7071067811865476
v 0.21850801222441046 0.7071067811865477 -0.6724985119639575
v 0.41562693777745324 0.7071067811865477 -0.5720614028176845
v 0.5720614028176843 0.7071067811865477 -0.4156269377774535
v 0.6724985119639574 0.7071067811865477 -0.2185080122244107
v 0.7071067811865476 0.7071067811865477 -1.7319121124709868e-16
v 0.8090169943749475 0.5877852522924731 0.0
v 0.7694208842938134 0.5877852522924731 0.25000000000000006
v 0.6545084971874738 0.5877852522924731 0.4755282581475767
v 0.4755282581475768 0.5877852522924731 0.6545084971874737
v 0.25000000000000006 0.5877852522924731 0.7694208842938134
v 4.953800363085458e-17 0.5877852522924731 0.8090169943749475
v -0.24999999999999997 0.5877852522924731 0.7694208842938135
v -0.47552825814757665 0.5877852522924731 0.6545084971874738
v -0.6545084971874737 0.5877852522924731 0.4755282581475768
v -0.7694208842938134 0.5877852522924731 0.2500000000000001
v -0.8090169943749475 0.5877852522924731 9.907600726170916e-17
v -0.7694208842938136 0.5877852522924731 -0.24999999999999964
v -0.654508497187474 0.5877852522924731 -0.47552825814757665
v -0.4755282581475769 0.5877852522924731 -0.6545084971874737
v -0.25000000000000017 0.5877852522924731 -0.7694208842938134
v -1.4861401089256373e-16 0.5877852522924731 -0.8090169943749475
v 0.2499999999999999 0.5877852522924731 -0.7694208842938135
v 0.47552825814757654 0.5877852522924731 -0.654508497187474
v 0.6545084971874736 0.5877852522924731 -0.4755282581475769
v 0.7694208842938134 0.5877852522924731 -0.2500000000000002
v 0.8090169943749475 0.5877852522924731 -1.9815201452341832e-16
v 0.8910065241883677 0.4539904997395468 0.0
v 0.8473975608908425 0.4539904997395468 0.2753361580731583
v 0.7208394201673423 0.4539904997395468 0.5237204946142991
v 0.5237204946142993 0.4539904997395468 0.7208394201673421
v 0.27533615807315837 0.4539904997395468 0.8473975608908425
v 5.4558414393334663e-17 0.4539904997395468 0.8910065241883677
v -0.27533615807315825 0.4539904997395468 0.8473975608908426
v -0.523720494614299 0.4539904997395468 0.7208394201673423
v -0.7208394201673421 0.4539904997395468 0.5237204946142993
v -0.8473975608908425 0.4539904997395468 0.27533615807315837
v -0.8910065241883677 0.4539904997395468 1.0911682878666933e-16
v -0.8473975608908427 0.4539904997395468 -0.27533615807315787
v -0.7208394201673424 0.4539904997395468 -0.523720494614299
v -0.5237204946142994 0.4539904997395468 -0.7208394201673421
v -0.2753361580731584 0.4539904997395468 -0.8473975608908424
v -1.6367524318000397e-16 0.4539904997395468 -0.8910065241883677
v 0.27533615807315814 0.4539904997395468 -0.8473975608908426
v 0.5237204946142989 0.4539904997395468 -0.7208394201673424
v 0.720839420167342 0.4539904997395468 -0.5237204946142994
v 0.8473975608908424 0.4539904997395468 -0.2753361580731585
v 0.8910065241883677 0.4539904997395468 -2.1823365757333865e-16
v 0.9510565162951536 0.3090169943749475 0.0
v 0.9045084971874738 0.3090169943749475 0.2938926261462366
v 0.7694208842938135 0.3090169943749475 0.5590169943749473
v 0.5590169943749475 0.3090169943749475 0.7694208842938134
v 0.2938926261462367 0.3090169943749475 0.9045084971874738
v 5.823541592445463e-17 0.3090169943749475 0.9510565162951536
v -0.29389262614623657 0.3090169943749475 0.904508497187474
v -0.5590169943749472 0.3090169943749475 0.7694208842938135
v -0.7694208842938134 0.3090169943749475 0.5590169943749475
v -0.9045084971874738 0.3090169943749475 0.29389262614623674
v -0.9510565162951536 0.3090169943749475 1.1647083184890926e-16
v -0.9045084971874741 0.3090169943749475 -0.2938926261462361
v -0.7694208842938136 0.3090169943749475 -0.5590169943749472
v -0.5590169943749476 0.3090169943749475 -0.7694208842938134
v -0.2938926261462368 0.3090169943749475 -0.9045084971874737
v -1.7470624777336386e-16 0.3090169943749475 -0.9510565162951536
v 0.29389262614623646 0.3090169943749475 -0.904508497187474
v 0.5590169943749471 0.3090169943749475 -0.7694208842938136
v 0.7694208842938133 0.3090169943749475 -0.5590169943749476
v 0.9045084971874737 0.3090169943749475 -0.29389262614623685
v 0.9510565162951536 0.3090169943749475 -2.329416636978185e-16
v 0.9876883405951377 0.15643446504023092 0.0
v 0.9393474323917528 0.15643446504023092 0.30521248238988885
v 0.7990566526874577 0.15643446504023092 0.580548640463047
v 0.5805486404630471 0.15643446504023092 0.7990566526874576
v 0.3052124823898889 0.15643446504023092 0.9393474323917528
v 6.047846824324981e-17 0.15643446504023092 0.9876883405951377
v -0.3052124823898888 0.15643446504023092 0.9393474323917529
v -0.5805486404630469 0.15643446504023092 0.7990566526874577
v -0.7990566526874576 0.15643446504023092 0.5805486404630471
v -0.9393474323917528 0.15643446504023092 0.30521248238988896
v -0.9876883405951377 0.15643446504023092 1.2095693648649962e-16
v -0.939347432391753 0.15643446504023092 -0.30521248238988835
v -0.7990566526874578 0.15643446504023092 -0.5805486404630469
v -0.5805486404630472 0.15643446504023092 -0.7990566526874576
v -0.305212482389889 0.15643446504023092 -0.9393474323917527
v -1.814354047297494e-16 0.15643446504023092 -0.9876883405951377
v 0.3052124823898887 0.15643446504023092 -0.9393474323917529
v 0.5805486404630468 0.15643446504023092 -0.7990566526874578
v 0.7990566526874575 0.15643446504023092 -0.5805486404630472
v 0.9393474323917527 0.15643446504023092 -0.3052124823898891
v 0.9876883405951377 0.15643446504023092 -2.4191387297299924e-16
v 1.0 6.123233995736766e-17 0.0
v 0.9510565162951536 6.123233995736766e-17 0.30901699437494745
v 0.8090169943749476 6.123233995736766e-17 0.587785252292473
v 0.5877852522924731 6.123233995736766e-17 0.8090169943749475
v 0.3090169943749475 6.123233995736766e-17 0.9510565162951536
v 6.123233995736766e-17 6.123233995736766e-17 1.0
v -0.3090169943749474 6.123233995736766e-17 0.9510565162951538
v -0.5877852522924729 6.123233995736766e-17 0.8090169943749476
v -0.8090169943749475 6.123233995736766e-17 0.5877852522924731
v -0.9510565162951536 6.123233995736766e-17 0.30901699437494756
v -1.0 6.123233995736766e-17 1.2246467991473532e-16
v -0.9510565162951539 6.123233995736766e-17 -0.30901699437494695
v -0.8090169943749477 6.123233995736766e-17 -0.5877852522924729
v -0.5877852522924732 6.123233995736766e-17 -0.8090169943749475
v -0.3090169943749476 6.123233995736766e-17 -0.9510565162951535
v -1.8369701987210297e-16 6.123233995736766e-17 -1.0
v 0.3090169943749473 6.123233995736766e-17 -0.9510565162951538
v 0.5877852522924728 6.123233995736766e-17 -0.8090169943749477
v 0.8090169943749473 6.123233995736766e-17 -0.5877852522924732
v 0.9510565162951535 6.123233995736766e-17 -0.3090169943749477
v 1.0 6.123233995736766e-17 -2.4492935982947064e-16
v 0.9876883405951378 -0.1564344650402306 0.0
v 0.9393474323917529 -0.1564344650402306 0.30521248238988885
v 0.7990566526874578 -0.1564344650402306 0.5805486404630471
v 0.5805486404630472 -0.1564344650402306 0.7990566526874577
v 0.3052124823898889 -0.1564344650402306 0.9393474323917529
v 6.047846824324981e-17 -0.1564344650402306 0.9876883405951378
v -0.3052124823898888 -0.1564344650402306 0.939347432391753
v -0.580548640463047 -0.1564344650402306 0.7990566526874578
v -0.7990566526874577 -0.1564344650402306 0.5805486404630472
v -0.9393474323917529 -0.1564344650402306 0.30521248238988896
v -0.9876883405951378 -0.1564344650402306 1.2095693648649962e-16
v -0.9393474323917531 -0.1564344650402306 -0.30521248238988835
v -0.799056652687458 -0.1564344650402306 -0.580548640463047
v -0.5805486404630473 -0.1564344650402306 -0.7990566526874577
v -0.305212482389889 -0.1564344650402306 -0.9393474323917528
v -1.8143540472974943e-16 -0.1564344650402306 -0.9876883405951378
v 0.3052124823898887 -0.1564344650402306 -0.939347432391753
v 0.5805486404630469 -0.1564344650402306 -0.799056652687458
v 0.7990566526874576 -0.1564344650402306 -0.5805486404630473
v 0.9393474323917528 -0.1564344650402306 -0.3052124823898891
v 0.9876883405951378 -0.1564344650402306 -2.4191387297299924e-16
v 0.9510565162951538 -0.3090169943749474 0.0
v 0.904508497187474 -0.3090169943749474 0.2938926261462366
v 0.7694208842938136 -0.3090169943749474 0.5590169943749475
v 0.5590169943749476 -0.3090169943749474 0.7694208842938135
v 0.2938926261462367 -0.3090169943749474 0.904508497187474
v 5.823541592445463e-17 -0.3090169943749474 0.9510565162951538
v -0.29389262614623657 -0.3090169943749474 0.9045084971874741
v -0.5590169943749473 -0.3090169943749474 0.7694208842938136
v -0.7694208842938135 -0.3090169943749474 0.5590169943749476
v -0.904508497187474 -0.3090169943749474 0.29389262614623674
v -0.9510565162951538 -0.3090169943749474 1.1647083184890926e-16
v -0.9045084971874742 -0.3090169943749474 -0.2938926261462362
v -0.7694208842938137 -0.3090169943749474 -0.5590169943749473
v -0.5590169943749477 -0.3090169943749474 -0.7694208842938135
v -0.2938926261462368 -0.3090169943749474 -0.9045084971874738
v -1.747062477733639e-16 -0.3090169943749474 -0.9510565162951538
v 0.2938926261462365 -0.3090169943749474 -0.9045084971874741
v 0.5590169943749472 -0.3090169943749474 -0.7694208842938137
v 0.7694208842938134 -0.3090169943749474 -0.5590169943749477
v 0.9045084971874738 -0.3090169943749474 -0.29389262614623685
v 0.9510565162951538 -0.3090169943749474 -2.329416636978185e-16
v 0.8910065241883678 -0.4539904997395467 0.0
v 0.8473975608908426 -0.4539904997395467 0.2753361580731583
v 0.7208394201673424 -0.4539904997395467 0.5237204946142993
v 0.5237204946142994 -0.4539904997395467 0.7208394201673423
v 0.27533615807315837 -0.4539904997395467 0.8473975608908426
v 5.455841439333467e-17 -0.4539904997395467 0.8910065241883678
v -0.27533615807315825 -0.4539904997395467 0.8473975608908427
v -0.5237204946142991 -0.4539904997395467 0.7208394201673424
v -0.7208394201673423 -0.4539904997395467 0.5237204946142994
v -0.8473975608908426 -0.4539904997395467 0.2753361580731584
v -0.8910065241883678 -0.4539904997395467 1.0911682878666934e-16
v -0.8473975608908428 -0.4539904997395467 -0.27533615807315787
v -0.7208394201673424 -0.4539904997395467 -0.5237204946142991
v -0.5237204946142995 -0.4539904997395467 -0.7208394201673423
v -0.2753361580731585 -0.4539904997395467 -0.8473975608908425
v -1.63675243180004e-16 -0.4539904997395467 -0.8910065241883678
v 0.2753361580731582 -0.4539904997395467 -0.8473975608908427
v 0.523720494614299 -0.4539904997395467 -0.7208394201673424
v 0.7208394201673421 -0.4539904997395467 -0.5237204946142995
v 0.8473975608908425 -0.4539904997395467 -0.27533615807315853
v 0.8910065241883678 -0.4539904997395467 -2.1823365757333868e-16
v 0.8090169943749476 -0.5877852522924729 0.0
v 0.7694208842938135 -0.5877852522924729 0.25000000000000006
v 0.654508497187474 -0.5877852522924729 0.47552825814757677
v 0.4755282581475769 -0.5877852522924729 0.6545084971874738
v 0.2500000000000001 -0.5877852522924729 0.7694208842938135
v 4.953800363085459e-17 -0.5877852522924729 0.8090169943749476
v -0.25 -0.5877852522924729 0.7694208842938136
v -0.4755282581475767 -0.5877852522924729 0.654508497187474
v -0.6545084971874738 -0.5877852522924729 0.4755282581475769
v -0.7694208842938135 -0.5877852522924729 0.25000000000000017
v -0.8090169943749476 -0.5877852522924729 9.907600726170918e-17
v -0.7694208842938137 -0.5877852522924729 -0.24999999999999967
v -0.6545084971874741 -0.5877852522924729 -0.4755282581475767
v -0.475528258147577 -0.5877852522924729 -0.6545084971874738
v -0.2500000000000002 -0.5877852522924729 -0.7694208842938135
v -1.4861401089256375e-16 -0.5877852522924729 -0.8090169943749476
v 0.24999999999999992 -0.5877852522924729 -0.7694208842938136
v 0.4755282581475766 -0.5877852522924729 -0.6545084971874741
v 0.6545084971874737 -0.5877852522924729 -0.475528258147577
v 0.7694208842938135 -0.5877852522924729 -0.2500000000000002
v 0.8090169943749476 -0.5877852522924729 -1.9815201452341837e-16
v 0.7071067811865477 -0.7071067811865475 0.0
v 0.6724985119639575 -0.7071067811865475 0.2185080122244106
v 0.5720614028176845 -0.7071067811865475 0.41562693777745346
v 0.4156269377774535 -0.7071067811865475 0.5720614028176845
v 0.21850801222441063 -0.7071067811865475 0.6724985119639575
v 4.3297802811774677e-17 -0.7071067811865475 0.7071067811865477
v -0.21850801222441057 -0.7071067811865475 0.6724985119639576
v -0.41562693777745335 -0.7071067811865475 0.5720614028176845
v -0.5720614028176845 -0.7071067811865475 0.4156269377774535
v -0.6724985119639575 -0.7071067811865475 0.21850801222441069
v -0.7071067811865477 -0.7071067811865475 8.659560562354935e-17
v -0.6724985119639577 -0.7071067811865475 -0.21850801222441024
v -0.5720614028176846 -0.7071067811865475 -0.41562693777745335
v -0.41562693777745363 -0.7071067811865475 -0.5720614028176845
v -0.2185080122244107 -0.7071067811865475 -0.6724985119639575
v -1.29893408435324e-16 -0.7071067811865475 -0.7071067811865477
v 0.2185080122244105 -0.7071067811865475 -0.6724985119639576
v 0.4156269377774533 -0.7071067811865475 -0.5720614028176846
v 0.5720614028176844 -0.7071067811865475 -0.41562693777745363
v 0.6724985119639575 -0.7071067811865475 -0.21850801222441077
v 0.7071067811865477 -0.7071067811865475 -1.731912112470987e-16
v 0.5877852522924731 -0.8090169943749475 0.0
v 0.5590169943749475 -0.8090169943749475 0.18163563200134025
v 0.4755282581475769 -0.8090169943749475 0.3454915028125262
v 0.3454915028125263 -0.8090169943749475 0.4755282581475768
v 0.18163563200134028 -0.8090169943749475 0.5590169943749475
v 3.599146639029983e-17 -0.8090169943749475 0.5877852522924731
v -0.1816356320013402 -0.8090169943749475 0.5590169943749476
v -0.34549150281252616 -0.8090169943749475 0.4755282581475769
v -0.4755282581475768 -0.8090169943749475 0.3454915028125263
v -0.5590169943749475 -0.8090169943749475 0.1816356320013403
v -0.5877852522924731 -0.8090169943749475 7.198293278059966e-17
v -0.5590169943749476 -0.8090169943749475 -0.18163563200133995
v -0.47552825814757693 -0.8090169943749475 -0.34549150281252616
v -0.3454915028125264 -0.8090169943749475 -0.4755282581475768
v -0.18163563200134034 -0.8090169943749475 -0.5590169943749475
v -1.079743991708995e-16 -0.8090169943749475 -0.5877852522924731
v 0.18163563200134014 -0.8090169943749475 -0.5590169943749476
v 0.3454915028125261 -0.8090169943749475 -0.47552825814757693
v 0.47552825814757677 -0.8090169943749475 -0.3454915028125264
v 0.5590169943749475 -0.8090169943749475 -0.18163563200134036
v 0.5877852522924731 -0.8090169943749475 -1.4396586556119933e-16
v 0.45399049973954686 -0.8910065241883677 0.0
v 0.4317706231133893 -0.8910065241883677 0.14029077970429513
v 0.36728602957406864 -0.8910065241883677 0.26684892042779546
v 0.2668489204277955 -0.8910065241883677 0.3672860295740686
v 0.14029077970429515 -0.8910065241883677 0.4317706231133893
v 2.7798900617467165e-17 -0.8910065241883677 0.45399049973954686
v -0.1402907797042951 -0.8910065241883677 0.4317706231133893
v -0.2668489204277954 -0.8910065241883677 0.36728602957406864
v -0.3672860295740686 -0.8910065241883677 0.2668489204277955
v -0.4317706231133893 -0.8910065241883677 0.14029077970429518
v -0.45399049973954686 -0.8910065241883677 5.559780123493433e-17
v -0.4317706231133894 -0.8910065241883677 -0.1402907797042949
v -0.36728602957406864 -0.8910065241883677 -0.2668489204277954
v -0.26684892042779557 -0.8910065241883677 -0.3672860295740686
v -0.1402907797042952 -0.8910065241883677 -0.43177062311338926
v -8.33967018524015e-17 -0.8910065241883677 -0.45399049973954686
v 0.14029077970429507 -0.8910065241883677 -0.4317706231133893
v 0.26684892042779534 -0.8910065241883677 -0.36728602957406864
v 0.36728602957406853 -0.8910065241883677 -0.26684892042779557
v 0.43177062311338926 -0.8910065241883677 -0.14029077970429524
v 0.45399049973954686 -0.8910065241883677 -1.1119560246986866e-16
v 0.30901699437494756 -0.9510565162951536 0.0
v 0.29389262614623674 -0.9510565162951536 0.09549150281252634
v 0.25000000000000017 -0.9510565162951536 0.18163563200134028
v 0.1816356320013403 -0.9510565162951536 0.2500000000000001
v 0.09549150281252636 -0.9510565162951536 0.29389262614623674
v 1.892183365217076e-17 -0.9510565162951536 0.30901699437494756
v -0.09549150281252632 -0.9510565162951536 0.29389262614623674
v -0.18163563200134022 -0.9510565162951536 0.25000000000000017
v -0.2500000000000001 -0.9510565162951536 0.1816356320013403
v -0.29389262614623674 -0.9510565162951536 0.09549150281252637
v -0.30901699437494756 -0.9510565162951536 3.784366730434152e-17
v -0.2938926261462368 -0.9510565162951536 -0.09549150281252619
v -0.25000000000000017 -0.9510565162951536 -0.18163563200134022
v -0.18163563200134034 -0.9510565162951536 -0.2500000000000001
v -0.09549150281252639 -0.9510565162951536 -0.2938926261462367
v -5.676550095651227e-17 -0.9510565162951536 -0.30901699437494756
v 0.09549150281252629 -0.9510565162951536 -0.29389262614623674
v 0.1816356320013402 -0.9510565162951536 -0.25000000000000017
v 0.2500000000000001 -0.9510565162951536 -0.18163563200134034
v 0.2938926261462367 -0.9510565162951536 -0.09549150281252641
v 0.30901699437494756 -0.9510565162951536 -7.568733460868304e-17
v 0.15643446504023098 -0.9876883405951377 0.0
v 0.14877801734965806 -0.9876883405951377 0.04834090820338497
v 0.12655814072350047 -0.9876883405951377 0.09194987150091022
v 0.09194987150091023 -0.9876883405951377 0.12655814072350047
v 0.04834090820338498 -0.9876883405951377 0.14877801734965806
v 9.57884834439237e-18 -0.9876883405951377 0.15643446504023098
v -0.048340908203384964 -0.9876883405951377 0.1487780173496581
v -0.0919498715009102 -0.9876883405951377 0.12655814072350047
v -0.12655814072350047 -0.9876883405951377 0.09194987150091023
v -0.14877801734965806 -0.9876883405951377 0.04834090820338499
v -0.15643446504023098 -0.9876883405951377 1.915769668878474e-17
v -0.14877801734965812 -0.9876883405951377 -0.048340908203384894
v -0.1265581407235005 -0.9876883405951377 -0.0919498715009102
v -0.09194987150091025 -0.9876883405951377 -0.12655814072350047
v -0.048340908203385 -0.9876883405951377 -0.14877801734965806
v -2.873654503317711e-17 -0.9876883405951377 -0.15643446504023098
v 0.04834090820338494 -0.9876883405951377 -0.1487780173496581
v 0.09194987150091018 -0.9876883405951377 -0.1265581407235005
v 0.12655814072350044 -0.9876883405951377 -0.09194987150091025
v 0.14877801734965806 -0.9876883405951377 -0.048340908203385005
v 0.15643446504023098 -0.9876883405951377 -3.831539337756948e-17
v 1.2246467991473532e-16 -1.0 0.0
v 1.1647083184890926e-16 -1.0 3.7843667304341506e-17
v 9.907600726170918e-17 -1.0 7.198293278059965e-17
v 7.198293278059966e-17 -1.0 9.907600726170916e-17
v 3.784366730434151e-17 -1.0 1.1647083184890926e-16
v 7.498798913309288e-33 -1.0 1.2246467991473532e-16
v -3.78436673043415e-17 -1.0 1.1647083184890926e-16
v -7.198293278059964e-17 -1.0 9.907600726170918e-17
v -9.907600726170916e-17 -1.0 7.198293278059966e-17
v -1.1647083184890926e-16 -1.0 3.784366730434152e-17
v -1.2246467991473532e-16 -1.0 1.4997597826618576e-32
v -1.1647083184890928e-16 -1.0 -3.7843667304341444e-17
v -9.90760072617092e-17 -1.0 -7.198293278059964e-17
v -7.198293278059968e-17 -1.0 -9.907600726170916e-17
v -3.7843667304341524e-17 -1.0 -1.1647083184890923e-16
v -2.2496396739927864e-32 -1.0 -1.2246467991473532e-16
v 3.784366730434149e-17 -1.0 -1.1647083184890926e-16
v 7.198293278059963e-17 -1.0 -9.90760072617092e-17
v 9.907600726170915e-17 -1.0 -7.198293278059968e-17
v 1.1647083184890923e-16 -1.0 -3.784366730434153e-17
v 1.2246467991473532e-16 -1.0 -2.999519565323715e-32
f 1 22 2
f 22 23 2
f 2 23 3
f 23 24 3
f 3 24 4
f 24 25 4
f 4 25 5
f 25 26 5
f 5 26 6
f 26 27 6
f 6 27 7
f 27 28 7
f 7 28 8
f 28 29 8
f 8 29 9
f 29 30 9
f 9 30 10
f 30 31 10
f 10 31 11
f 31 32 11
f 11 32 12
f 32 33 12
f 12 33 13
f 33 34 13
f 13 34 14
f 34 35 14
f 14 35 15
f 35 36 15
f 15 36 16
f 36 37 16
f 16 37 17
f 37 38 17
f 17 38 18
f 38 39 18
f 18 39 19
f 39 40 19
f 19 40 20
f 40 41 20
f 20 41 21
f 41 42 21
f 22 43 23
f 43 44 23
f 23 44 24
f 44 45 24
f 24 45 25
f 45 46 25
f 25 46 26
f 46 47 26
f 26 47 27
f 47 48 27
f 27 48 28
f 48 49 28
f 28 49 29
f 49 50 29
f 29 50 30
f 50 51 30
f 30 51 31
f 51 52 31
f 31 52 32
f 52 53 32
f 32 53 33
f 53 54 33
f 33 54 34
f 54 55 34
f 34 55 35
f 55 56 35
f 35 56 36
f 56 57 36
f 36 57 37
f 57 58 37
f 37 58 38
f 58 59 38
f 38 59 39
f 59 60 39
f 39 60 40
f 60 61 40
f 40 61 41
f 61 62 41
f 41 62 42
f 62 63 42
f 43 64 44
f 64 65 44
f 44 65 45
f 65 66 45
f 45 66 46
f 66 67 46
f 46 67 47
f 67 68 47
f 47 68 48
f 68 69 48
f 48 69 49
f 69 70 49
f 49 70 50
f 70 71 50
f 50 71 51
f 71 72 51
f 51 72 52
f 72 73 52
f 52 73 53
f 73 74 53
f 53 74 54
f 74 75 54
f 54 75 55
f 75 76 55
f 55 76 56
f 76 77 56
f 56 77 57
f 77 78 57
f 57 78 58
f 78 79 58
f 58 79 59
f 79 80 59
f 59 80 60
f 80 81 60
f 60 81 61
f 81 82 61
f 61 82 62
f 82 83 62
f 62 83 63
f 83 84 63
f 64 85 65
f 85 86 65
f 65 86 66
f 86 87 66
f 66 87 67
f 87 88 67
f 67 88 68
f 88 89 68
f 68 89 69
f 89 90 69
f 69 90 70
f 90 91 70
f 70 91 71
f 91 92 71
f 71 92 72
f 92 93 72
f 72 93 73
f 93 94 73
f 73 94 74
f 94 95 74
f 74 95 75
f 95 96 75
f 75 96 76
f 96 97 76
f 76 97 77
f 97 98 77
f 77 98 78
f 98 99 78
f 78 99 79
f 99 100 79
f 79 100 80
f 100 101 80
f 80 101 81
f 101 102 81
f 81 102 82
f 102 103 82
f 82 103 83
f 103 104 83
f 83 104 84
f 104 105 84
f 85 106 86
f 106 107 86
f 86 107 87
f 107 108 87
f 87 108 88
f 108 109 88
f 88 109 89
f 109 110 89
f 89 110 90
f 110 111 90
f 90 111 91
f 111 112 91
f 91 112 92
f 112 113 92
f 92 113 93
f 113 114 93
f 93 114 94
f 114 115 94
f 94 115 95
f 115 116 95
f 95 116 96
f 116 117 96
f 96 117 97
f 117 118 97
f 97 118 98
f 118 119 98
f 98 119 99
f 119 120 99
f 99 120 100
f 120 121 100
f 100 121 101
f 121 122 101
f 101 122 102
f 122 123 102
f 102 123 103
f 123 124 103
f 103 124 104
f 124 125 104
f 104 125 105
f 125 126 105
f 106 127 107
f 127 128 107
f 107 128 108
f 128 129 108
f 108 129 109
f 129 130 109
f 109 130 110
f 130 131 110
f 110 131 111
f 131 132 111
f 111 132 112
f 132 133 112
f 112 133 113
f 133 134 113
f 113 134 114
f 134 135 114
f 114 135 115
f 135 136 115
f 115 136 116
f 136 137 116
f 116 137 117
f 137 138 117
f 117 138 118
f 138 139 118
f 118 139 119
f 139 140 119
f 119 140 120
f 140 141 120
f 120 141 121
f 141 142 121
f 121 142 122
f 142 143 122
f 122 143 123
f 143 144 123
f 123 144 124
f 144 145 124
f 124 145 125
f 145 146 125
f 125 146 126
f 146 147 126
f 127 148 128
f 148 149 128
f 128 149 129
f 149 150 129
f 129 150 130
f 150 151 130
f 130 151 131
f 151 152 131
f 131 152 132
f 152 153 132
f 132 153 133
f 153 154 133
f 133 154 134
f 154 155 134
f 134 155 135
f 155 156 135
f 135 156 136
f 156 157 136
f 136 157 137
f 157 158 137
f 137 158 138
f 158 159 138
f 138 159 139
f 159 160 139
f 139 160 140
f 160 161 140
f 140 161 141
f 161 162 141
f 141 162 142
f 162 163 142
f 142 163 143
f 163 164 143
f 143 164 144
f 164 165 144
f 144 165 145
f 165 166 145
f 145 166 146
f 166 167 146
f 146 167 147
f 167 168 147
f 148 169 149
f 169 170 149
f 149 170 150
f 170 171 150
f 150 171 151
f 171 172 151
f 151 172 152
f 172 173 152
f 152 173 153
f 173 174 153
f 153 174 154
f 174 175 154
f 154 175 155
f 175 176 155
f 155 176 156
f 176 177 156
f 156 177 157
f 177 178 157
f 157 178 158
f 178 179 158
f 158 179 159
f 179 180 159
f 159 180 160
f 180 181 160
f 160 181 161
f 181 182 161
f 161 182 162
f 182 183 162
f 162 183 163
f 183 184 163
f 163 184 164
f 184 185 164
f 164 185 165
f 185 186 165
f 165 186 166
f 186 187 166
f 166 187 167
f 187 188 167
f 167 188 168
f 188 189 168
f 169 190 170
f 190 191 170
f 170 191 171
f 191 192 171
f 171 192 172
f 192 193 172
f 172 193 173
f 193 194 173
f 173 194 174
f 194 195 174
f 174 195 175
f 195 196 175
f 175 196 176
f 196 197 176
f 176 197 177
f 197 198 177
f 177 198 178
f 198 199 178
f 178 199 179
f 199 200 179
f 179 200 180
f 200 201 180
f 180 201 181
f 201 202 181
f 181 202 182
f 202 203 182
f 182 203 183
f 203 204 183
f 183 204 184
f 204 205 184
f 184 205 185
f 205 206 185
f 185 206 186
f 206 207 186
f 186 207 187
f 207 208 187
f 187 208 188
f 208 209 188
f 188 209 189
f 209 210 189
f 190 211 191
f 211 212 191
f 191 212 192
f 212 213 192
f 192 213 193
f 213 214 193
f 193 214 194
f 214 215 194
f 194 215 195
f 215 216 195
f 195 216 196
f 216 217 196
f 196 217 197
f 217 218 197
f 197 218 198
f 218 219 198
f 198 219 199
f 219 220 199
f 199 220 200
f 220 221 200
f 200 221 201
f 221 222 201
f 201 222 202
f 222 223 202
f 202 223 203
f 223 224 203
f 203 224 204
f 224 225 204
f 204 225 205
f 225 226 205
f 205 226 206
f 226 227 206
f 206 227 207
f 227 228 207
f 207 228 208
f 228 229 208
f 208 229 209
f 229 230 209
f 209 230 210
f 230 231 210
f 211 232 212
f 232 233 212
f 212 233 213
f 233 234 213
f 213 234 214
f 234 235 214
f 214 235 215
f 235 236 215
f 215 236 216
f 236 237 216
f 216 237 217
f 237 238 217
f 217 238 218
f 238 239 218
f 218 239 219
f 239 240 219
f 219 240 220
f 240 241 220
f 220 241 221
f 241 242 221
f 221 242 222
f 242 243 222
f 222 243 223
f 243 244 223
f 223 244 224
f 244 245 224
f 224 245 225
f 245 246 225
f 225 246 226
f 246 247 226
f 226 247 227
f 247 248 227
f 227 248 228
f 248 249 228
f 228 249 229
f 249 250 229
f 229 250 230
f 250 251 230
f 230 251 231
f 251 252 231
f 232 253 233
f 253 254 233
f 233 254 234
f 254 255 234
f 234 255 235
f 255 256 235
f 235 256 236
f 256 257 236
f 236 257 237
f 257 258 237
f 237 258 238
f 258 259 238
f 238 259 239
f 259 260 239
f 239 260 240
f 260 261 240
f 240 261 241
f 261 262 241
f 241 262 242
f 262 263 242
f 242 263 243
f 263 264 243
f 243 264 244
f 264 265 244
f 244 265 245
f 265 266 245
f 245 266 246
f 266 267 246
f 246 267 247
f 267 268 247
f 247 268 248
f 268 269 248
f 248 269 249
f 269 270 249
f 249 270 250
f 270 271 250
f 250 271 251
f 271 272 251
f 251 272 252
f 272 273 252
f 253 274 254
f 274 275 254
f 254 275 255
f 275 276 255
f 255 276 256
f 276 277 256
f 256 277 257
f 277 278 257
f 257 278 258
f 278 279 258
f 258 279 259
f 279 280 259
f 259 280 260
f 280 281 260
f 260 281 261
f 281 282 261
f 261 282 262
f 282 283 262
f 262 283 263
f 283 284 263
f 263 284 264
f 284 285 264
f 264 285 265
f 285 286 265
f 265 286 266
f 286 287 266
f 266 287 267
f 287 288 267
f 267 288 268
f 288 289 268
f 268 289 269
f 289 290 269
f 269 290 270
f 290 291 270
f 270 291 271
f 291 292 271
f 271 292 272
f 292 293 272
f 272 293 273
f 293 294 273
f 274 295 275
f 295 296 275
f 275 296 276
f 296 297 276
f 276 297 277
f 297 298 277
f 277 298 278
f 298 299 278
f 278 299 279
f 299 300 279
f 279 300 280
f 300 301 280
f 280 301 281
f 301 302 281
f 281 302 282
f 302 303 282
f 282 303 283
f 303 304 283
f 283 304 284
f 304 305 284
f 284 305 285
f 305 306 285
f 285 306 286
f 306 307 286
f 286 307 287
f 307 308 287
f 287 308 288
f 308 309 288
f 288 309 289
f 309 310 289
f 289 310 290
f 310 311 290
f 290 311 291
f 311 312 291
f 291 312 292
f 312 313 292
f 292 313 293
f 313 314 293
f 293 314 294
f 314 315 294
f 295 316 296
f 316 317 296
f 296 317 297
f 317 318 297
f 297 318 298
f 318 319 298
f 298 319 299
f 319 320 299
f 299 320 300
f 320 321 300
f 300 321 301
f 321 322 301
f 301 322 302
f 322 323 302
f 302 323 303
f 323 324 303
f 303 324 304
f 324 325 304
f 304 325 305
f 325 326 305
f 305 326 306
f 326 327 306
f 306 327 307
f 327 328 307
f 307 328 308
f 328 329 308
f 308 329 309
f 329 330 309
f 309 330 310
f 330 331 310
f 310 331 311
f 331 332 311
f 311 332 312
f 332 333 312
f 312 333 313
f 333 334 313
f 313 334 314
f 334 335 314
f 314 335 315
f 335 336 315
f 316 337 317
f 337 338 317
f 317 338 318
f 338 339 318
f 318 339 319
f 339 340 319
f 319 340 320
f 340 341 320
f 320 341 321
f 341 342 321
f 321 342 322
f 342 343 322
f 322 343 323
f 343 344 323
f 323 344 324
f 344 345 324
f 324 345 325
f 345 346 325
f 325 346 326
f 346 347 326
f 326 347 327
f 347 348 327
f 327 348 328
f 348 349 328
f 328 349 329
f 349 350 329
f 329 350 330
f 350 351 330
f 330 351 331
f 351 352 331
f 331 352 332
f 352 353 332
f 332 353 333
f 353 354 333
f 333 354 334
f 354 355 334
f 334 355 335
f 355 356 335
f 335 356 336
f 356 357 336
f 337 358 338
f 358 359 338
f 338 359 339
f 359 360 339
f 339 360 340
f 360 361 340
f 340 361 341
f 361 362 341
f 341 362 342
f 362 363 342
f 342 363 343
f 363 364 343
f 343 364 344
f 364 365 344
f 344 365 345
f 365 366 345
f 345 366 346
f 366 367 346
f 346 367 347
f 367 368 347
f 347 368 348
f 368 369 348
f 348 369 349
f 369 370 349
f 349 370 350
f 370 371 350
f 350 371 351
f 371 372 351
f 351 372 352
f 372 373 352
f 352 373 353
f 373 374 353
f 353 374 354
f 374 375 354
f 354 375 355
f 375 376 355
f 355 376 356
f 376 377 356
f 356 377 357
f 377 378 357
f 358 379 359
f 379 380 359
f 359 380 360
f 380 381 360
f 360 381 361
f 381 382 361
f 361 382 362
f 382 383 362
f 362 383 363
f 383 384 363
f 363 384 364
f 384 385 364
f 364 385 365
f 385 386 365
f 365 386 366
f 386 387 366
f 366 387 367
f 387 388 367
f 367 388 368
f 388 389 368
f 368 389 369
f 389 390 369
f 369 390 370
f 390 391 370
f 370 391 371
f 391 392 371
f 371 392 372
f 392 393 372
f 372 393 373
f 393 394 373
f 373 394 374
f 394 395 374
f 374 395 375
f 395 396 375
f 375 396 376
f 396 397 376
f 376 397 377
f 397 398 377
f 377 398 378
f 398 399 378
f 379 400 380
f 400 401 380
f 380 401 381
f 401 402 381
f 381 402 382
f 402 403 382
f 382 403 383
f 403 404 383
f 383 404 384
f 404 405 384
f 384 405 385
f 405 406 385
f 385 406 386
f 406 407 386
f 386 407 387
f 407 408 387
f 387 408 388
f 408 409 388
f 388 409 389
f 409 410 389
f 389 410 390
f 410 411 390
f 390 411 391
f 411 412 391
f 391 412 392
f 412 413 392
f 392 413 393
f 413 414 393
f 393 414 394
f 414 415 394
f 394 415 395
f 415 416 395
f 395 416 396
f 416 417 396
f 396 417 397
f 417 418 397
f 397 418 398
f 418 419 398
f 398 419 399
f 419 420 399
f 400 421 401
f 421 422 401
f 401 422 402
f 422 423 402
f 402 423 403
f 423 424 403
f 403 424 404
f 424 425 404
f 404 425 405
f 425 426 405
f 405 426 406
f 426 427 406
f 406 427 407
f 427 428 407
f 407 428 408
f 428 429 408
f 408 429 409
f 429 430 409
f 409 430 410
f 430 431 410
f 410 431 411
f 431 432 411
f 411 432 412
f 432 433 412
f 412 433 413
f 433 434 413
f 413 434 414
f 434 435 414
f 414 435 415
f 435 436 415
f 415 436 416
f 436 437 416
f 416 437 417
f 437 438 417
f 417 438 418
f 438 439 418
f 418 439 419
f 439 440 419
f 419 440 420
f 440 441 420